{
  "accessors": [
    {
      "bufferView": 2,
      "componentType": 5126,
      "count": 5313,
      "max": [
        11.849800109863281,
        9.505339622497559,
        190.03500366210938
      ],
      "min": [
        -11.422499656677246,
        -14.959699630737305,
        165.88900756835938
      ],
      "type": "VEC3"
    },
    {
      "bufferView": 2,
      "byteOffset": 63756,
      "componentType": 5126,
      "count": 5313,
      "max": [
        0.999963641166687,
        0.9980629086494446,
        0.987934947013855
      ],
      "min": [
        -0.9999035596847534,
        -0.9955136179924011,
        -0.9954601526260376
      ],
      "type": "VEC3"
    },
    {
      "bufferView": 1,
      "componentType": 5126,
      "count": 5313,
      "max": [
        0.9588680267333984,
        0.865776002407074
      ],
      "min": [
        0.056689001619815826,
        0.2802389860153198
      ],
      "type": "VEC2"
    },
    {
      "bufferView": 0,
      "componentType": 5125,
      "count": 30720,
      "type": "SCALAR"
    },
    {
      "bufferView": 2,
      "byteOffset": 127512,
      "componentType": 5126,
      "count": 39563,
      "max": [
        46.59260177612305,
        15.755000114440918,
        187.71200561523438
      ],
      "min": [
        -46.59320068359375,
        -20.31909942626953,
        0.8227880001068115
      ],
      "type": "VEC3"
    },
    {
      "bufferView": 2,
      "byteOffset": 602268,
      "componentType": 5126,
      "count": 39563,
      "max": [
        0.9999885559082031,
        0.9999865889549255,
        0.9999992847442627
      ],
      "min": [
        -0.9999895095825195,
        -0.9999997615814209,
        -0.9999924898147583
      ],
      "type": "VEC3"
    },
    {
      "bufferView": 3,
      "componentType": 5126,
      "count": 39563,
      "max": [
        1.0,
        0.9999999403953552,
        0.9996116757392883,
        1.0
      ],
      "min": [
        -1.0,
        -1.0,
        -0.9999334216117859,
        -1.0
      ],
      "type": "VEC4"
    },
    {
      "bufferView": 1,
      "byteOffset": 42504,
      "componentType": 5126,
      "count": 39563,
      "max": [
        0.9980080127716064,
        0.9429500102996826
      ],
      "min": [
        0.0019920000340789557,
        0.0018820000113919377
      ],
      "type": "VEC2"
    },
    {
      "bufferView": 0,
      "byteOffset": 122880,
      "componentType": 5125,
      "count": 198528,
      "type": "SCALAR"
    },
    {
      "bufferView": 2,
      "byteOffset": 1077024,
      "componentType": 5126,
      "count": 3804,
      "max": [
        10.473199844360352,
        -0.6312819719314575,
        179.85000610351563
      ],
      "min": [
        -10.473199844360352,
        -17.638700485229492,
        168.96099853515625
      ],
      "type": "VEC3"
    },
    {
      "bufferView": 2,
      "byteOffset": 1122672,
      "componentType": 5126,
      "count": 3804,
      "max": [
        0.9999932050704956,
        0.9999343752861023,
        0.9999591112136841
      ],
      "min": [
        -0.9999154806137085,
        -0.9999487996101379,
        -0.9999961853027344
      ],
      "type": "VEC3"
    },
    {
      "bufferView": 1,
      "byteOffset": 359008,
      "componentType": 5126,
      "count": 3804,
      "max": [
        1.0,
        1.0
      ],
      "min": [
        0.0,
        0.0
      ],
      "type": "VEC2"
    },
    {
      "bufferView": 0,
      "byteOffset": 916992,
      "componentType": 5125,
      "count": 19968,
      "type": "SCALAR"
    },
    {
      "bufferView": 2,
      "byteOffset": 1168320,
      "componentType": 5126,
      "count": 263,
      "max": [
        2.932889938354492,
        6.211790084838867,
        189.6999969482422
      ],
      "min": [
        -3.4974799156188965,
        1.6946699619293213,
        185.8489990234375
      ],
      "type": "VEC3"
    },
    {
      "bufferView": 2,
      "byteOffset": 1171476,
      "componentType": 5126,
      "count": 263,
      "max": [
        0.9977823495864868,
        0.967951238155365,
        0.9318062663078308
      ],
      "min": [
        -0.9957922101020813,
        -0.9669257998466492,
        -0.9292742013931274
      ],
      "type": "VEC3"
    },
    {
      "bufferView": 1,
      "byteOffset": 389440,
      "componentType": 5126,
      "count": 263,
      "max": [
        1.0,
        1.0
      ],
      "min": [
        0.0,
        0.0
      ],
      "type": "VEC2"
    },
    {
      "bufferView": 0,
      "byteOffset": 996864,
      "componentType": 5125,
      "count": 960,
      "type": "SCALAR"
    },
    {
      "bufferView": 2,
      "byteOffset": 1174632,
      "componentType": 5126,
      "count": 590,
      "max": [
        45.22172546386719,
        45.22172546386719,
        1.3791069984436035
      ],
      "min": [
        -45.22172546386719,
        -45.22172546386719,
        -2.9061660766601563
      ],
      "type": "VEC3"
    },
    {
      "bufferView": 2,
      "byteOffset": 1181712,
      "componentType": 5126,
      "count": 590,
      "max": [
        0.9996405839920044,
        0.9996405839920044,
        1.0
      ],
      "min": [
        -0.9996405839920044,
        -0.9996405839920044,
        -1.0
      ],
      "type": "VEC3"
    },
    {
      "bufferView": 1,
      "byteOffset": 391544,
      "componentType": 5126,
      "count": 590,
      "max": [
        1.0,
        1.0
      ],
      "min": [
        0.0,
        0.0
      ],
      "type": "VEC2"
    },
    {
      "bufferView": 0,
      "byteOffset": 1000704,
      "componentType": 5125,
      "count": 3024,
      "type": "SCALAR"
    },
    {
      "bufferView": 2,
      "byteOffset": 1188792,
      "componentType": 5126,
      "count": 1666,
      "max": [
        6.554870128631592,
        -6.0000901222229,
        178.1269989013672
      ],
      "min": [
        -1.4556699991226196,
        -14.010600090026855,
        170.125
      ],
      "type": "VEC3"
    },
    {
      "bufferView": 2,
      "byteOffset": 1208784,
      "componentType": 5126,
      "count": 1666,
      "max": [
        0.9999999403953552,
        1.0,
        1.0
      ],
      "min": [
        -1.0,
        -1.0,
        -1.0
      ],
      "type": "VEC3"
    },
    {
      "bufferView": 1,
      "byteOffset": 396264,
      "componentType": 5126,
      "count": 1666,
      "max": [
        0.9861840009689331,
        0.9861840009689331
      ],
      "min": [
        0.01381599996238947,
        0.01381599996238947
      ],
      "type": "VEC2"
    },
    {
      "bufferView": 0,
      "byteOffset": 1012800,
      "componentType": 5125,
      "count": 9216,
      "type": "SCALAR"
    },
    {
      "bufferView": 2,
      "byteOffset": 1228776,
      "componentType": 5126,
      "count": 1666,
      "max": [
        1.4552700519561768,
        -5.999730110168457,
        178.1269989013672
      ],
      "min": [
        -6.555270195007324,
        -14.010299682617188,
        170.125
      ],
      "type": "VEC3"
    },
    {
      "bufferView": 2,
      "byteOffset": 1248768,
      "componentType": 5126,
      "count": 1666,
      "max": [
        1.0,
        0.9999999403953552,
        0.9999999403953552
      ],
      "min": [
        -1.0,
        -1.0,
        -0.9999999403953552
      ],
      "type": "VEC3"
    },
    {
      "bufferView": 1,
      "byteOffset": 409592,
      "componentType": 5126,
      "count": 1666,
      "max": [
        0.9861840009689331,
        0.9861840009689331
      ],
      "min": [
        0.01381599996238947,
        0.01381599996238947
      ],
      "type": "VEC2"
    },
    {
      "bufferView": 0,
      "byteOffset": 1049664,
      "componentType": 5125,
      "count": 9216,
      "type": "SCALAR"
    },
    {
      "bufferView": 2,
      "byteOffset": 1268760,
      "componentType": 5126,
      "count": 124,
      "max": [
        8.91163158416748,
        -14.446781158447266,
        179.6381378173828
      ],
      "min": [
        -8.91163158416748,
        -17.201696395874023,
        169.4264373779297
      ],
      "type": "VEC3"
    },
    {
      "bufferView": 2,
      "byteOffset": 1270248,
      "componentType": 5126,
      "count": 124,
      "max": [
        0.3340456783771515,
        0.9425573945045471,
        2.0762679753261182e-07
      ],
      "min": [
        -0.3340456783771515,
        -0.9425572156906128,
        -1.9412027540965937e-07
      ],
      "type": "VEC3"
    },
    {
      "bufferView": 1,
      "byteOffset": 422920,
      "componentType": 5126,
      "count": 124,
      "max": [
        0.65625,
        0.9923530220985413
      ],
      "min": [
        0.34375,
        0.007646999787539244
      ],
      "type": "VEC2"
    },
    {
      "bufferView": 0,
      "byteOffset": 1086528,
      "componentType": 5125,
      "count": 480,
      "type": "SCALAR"
    },
    {
      "bufferView": 2,
      "byteOffset": 1271736,
      "componentType": 5126,
      "count": 6660,
      "max": [
        10.317031860351563,
        18.109230041503906,
        199.65415954589844
      ],
      "min": [
        -10.596074104309082,
        -11.55239486694336,
        163.76329040527344
      ],
      "type": "VEC3"
    },
    {
      "bufferView": 2,
      "byteOffset": 1351656,
      "componentType": 5126,
      "count": 6660,
      "max": [
        0.9999767541885376,
        0.9995836019515991,
        0.9997198581695557
      ],
      "min": [
        -0.9999809861183167,
        -0.983607292175293,
        -0.9951320290565491
      ],
      "type": "VEC3"
    },
    {
      "bufferView": 1,
      "byteOffset": 423912,
      "componentType": 5126,
      "count": 6660,
      "max": [
        0.9644280076026917,
        0.9980080127716064
      ],
      "min": [
        0.0019249999895691872,
        0.0019920000340789557
      ],
      "type": "VEC2"
    },
    {
      "bufferView": 0,
      "byteOffset": 1088448,
      "componentType": 5125,
      "count": 25440,
      "type": "SCALAR"
    }
  ],
  "asset": {
    "extras": {
      "author": "emperial.rat (https://sketchfab.com/emperial.rat)",
      "license": "CC-BY-4.0 (http://creativecommons.org/licenses/by/4.0/)",
      "source": "https://sketchfab.com/3d-models/girl-with-glasses-094ee5dcb94e4b8787d314662be3a80e",
      "title": "Girl With Glasses"
    },
    "generator": "Sketchfab-12.68.0",
    "version": "2.0"
  },
  "bufferViews": [
    {
      "buffer": 0,
      "byteLength": 1190208,
      "name": "floatBufferViews",
      "target": 34963
    },
    {
      "buffer": 0,
      "byteLength": 477192,
      "byteOffset": 1190208,
      "byteStride": 8,
      "name": "floatBufferViews",
      "target": 34962
    },
    {
      "buffer": 0,
      "byteLength": 1431576,
      "byteOffset": 1667400,
      "byteStride": 12,
      "name": "floatBufferViews",
      "target": 34962
    },
    {
      "buffer": 0,
      "byteLength": 633008,
      "byteOffset": 3098976,
      "byteStride": 16,
      "name": "floatBufferViews",
      "target": 34962
    }
  ],
  "buffers": [
    {
      "byteLength": 3731984,
      "uri": "scene.bin"
    }
  ],
  "images": [
    {
      "uri": "textures/bandana_baseColor.png"
    },
    {
      "uri": "textures/body_baseColor.png"
    },
    {
      "uri": "textures/body_normal.png"
    },
    {
      "uri": "textures/cadre_baseColor.png"
    },
    {
      "uri": "textures/chakal_baseColor.png"
    },
    {
      "uri": "textures/material_baseColor.png"
    },
    {
      "uri": "textures/hair_baseColor.png"
    }
  ],
  "materials": [
    {
      "doubleSided": true,
      "name": "bandana",
      "pbrMetallicRoughness": {
        "baseColorTexture": {
          "index": 0
        },
        "metallicFactor": 0.0,
        "roughnessFactor": 0.6
      }
    },
    {
      "doubleSided": true,
      "name": "body",
      "normalTexture": {
        "index": 2
      },
      "pbrMetallicRoughness": {
        "baseColorTexture": {
          "index": 1
        },
        "metallicFactor": 0.0,
        "roughnessFactor": 0.6
      }
    },
    {
      "doubleSided": true,
      "name": "cadre",
      "pbrMetallicRoughness": {
        "baseColorTexture": {
          "index": 3
        },
        "metallicFactor": 0.0,
        "roughnessFactor": 0.6
      }
    },
    {
      "doubleSided": true,
      "name": "chakal",
      "pbrMetallicRoughness": {
        "baseColorTexture": {
          "index": 4
        },
        "metallicFactor": 0.0,
        "roughnessFactor": 0.6
      }
    },
    {
      "doubleSided": true,
      "name": "concrete",
      "pbrMetallicRoughness": {
        "baseColorFactor": [
          0.9899636881,
          0.7014249386,
          0.4423437999,
          1.0
        ],
        "metallicFactor": 0.0,
        "roughnessFactor": 0.6
      }
    },
    {
      "doubleSided": true,
      "name": "material",
      "pbrMetallicRoughness": {
        "baseColorTexture": {
          "index": 5
        },
        "metallicFactor": 0.0,
        "roughnessFactor": 0.0
      }
    },
    {
      "alphaMode": "BLEND",
      "doubleSided": true,
      "name": "glass",
      "pbrMetallicRoughness": {
        "baseColorFactor": [
          1.0,
          1.0,
          1.0,
          0.3162474242
        ],
        "metallicFactor": 0.8822851601,
        "roughnessFactor": 0.0
      }
    },
    {
      "doubleSided": true,
      "name": "hair",
      "pbrMetallicRoughness": {
        "baseColorTexture": {
          "index": 6
        },
        "metallicFactor": 0.0,
        "roughnessFactor": 0.6
      }
    }
  ],
  "meshes": [
    {
      "name": "Object_0",
      "primitives": [
        {
          "attributes": {
            "NORMAL": 1,
            "POSITION": 0,
            "TEXCOORD_0": 2
          },
          "indices": 3,
          "material": 0,
          "mode": 4
        }
      ]
    },
    {
      "name": "Object_1",
      "primitives": [
        {
          "attributes": {
            "NORMAL": 5,
            "POSITION": 4,
            "TANGENT": 6,
            "TEXCOORD_0": 7
          },
          "indices": 8,
          "material": 1,
          "mode": 4
        }
      ]
    },
    {
      "name": "Object_2",
      "primitives": [
        {
          "attributes": {
            "NORMAL": 10,
            "POSITION": 9,
            "TEXCOORD_0": 11
          },
          "indices": 12,
          "material": 2,
          "mode": 4
        }
      ]
    },
    {
      "name": "Object_3",
      "primitives": [
        {
          "attributes": {
            "NORMAL": 14,
            "POSITION": 13,
            "TEXCOORD_0": 15
          },
          "indices": 16,
          "material": 3,
          "mode": 4
        }
      ]
    },
    {
      "name": "Object_4",
      "primitives": [
        {
          "attributes": {
            "NORMAL": 18,
            "POSITION": 17,
            "TEXCOORD_0": 19
          },
          "indices": 20,
          "material": 4,
          "mode": 4
        }
      ]
    },
    {
      "name": "Object_5",
      "primitives": [
        {
          "attributes": {
            "NORMAL": 22,
            "POSITION": 21,
            "TEXCOORD_0": 23
          },
          "indices": 24,
          "material": 5,
          "mode": 4
        }
      ]
    },
    {
      "name": "Object_6",
      "primitives": [
        {
          "attributes": {
            "NORMAL": 26,
            "POSITION": 25,
            "TEXCOORD_0": 27
          },
          "indices": 28,
          "material": 5,
          "mode": 4
        }
      ]
    },
    {
      "name": "Object_7",
      "primitives": [
        {
          "attributes": {
            "NORMAL": 30,
            "POSITION": 29,
            "TEXCOORD_0": 31
          },
          "indices": 32,
          "material": 6,
          "mode": 4
        }
      ]
    },
    {
      "name": "Object_8",
      "primitives": [
        {
          "attributes": {
            "NORMAL": 34,
            "POSITION": 33,
            "TEXCOORD_0": 35
          },
          "indices": 36,
          "material": 7,
          "mode": 4
        }
      ]
    }
  ],
  "nodes": [
    {
      "children": [
        1
      ],
      "matrix": [
        0.008779160678386688,
        0.0,
        0.0,
        0.0,
        0.0,
        1.949365264405742e-18,
        -0.008779160678386688,
        0.0,
        0.0,
        0.008779160678386688,
        1.949365264405742e-18,
        0.0,
        0.0,
        0.0,
        0.0,
        1.0
      ],
      "name": "Sketchfab_model"
    },
    {
      "children": [
        2,
        3,
        4,
        5,
        6,
        7,
        8,
        9,
        10
      ],
      "name": "girl.obj.cleaner.materialmerger.gles"
    },
    {
      "mesh": 0,
      "name": "Object_2"
    },
    {
      "mesh": 1,
      "name": "Object_3"
    },
    {
      "mesh": 2,
      "name": "Object_4"
    },
    {
      "mesh": 3,
      "name": "Object_5"
    },
    {
      "mesh": 4,
      "name": "Object_6"
    },
    {
      "mesh": 5,
      "name": "Object_7"
    },
    {
      "mesh": 6,
      "name": "Object_8"
    },
    {
      "mesh": 7,
      "name": "Object_9"
    },
    {
      "mesh": 8,
      "name": "Object_10"
    }
  ],
  "samplers": [
    {
      "magFilter": 9729,
      "minFilter": 9987,
      "wrapS": 10497,
      "wrapT": 10497
    }
  ],
  "scene": 0,
  "scenes": [
    {
      "name": "Sketchfab_Scene",
      "nodes": [
        0
      ]
    }
  ],
  "textures": [
    {
      "sampler": 0,
      "source": 0
    },
    {
      "sampler": 0,
      "source": 1
    },
    {
      "sampler": 0,
      "source": 2
    },
    {
      "sampler": 0,
      "source": 3
    },
    {
      "sampler": 0,
      "source": 4
    },
    {
      "sampler": 0,
      "source": 5
    },
    {
      "sampler": 0,
      "source": 6
    }
  ]
}
