{
  "accessors": [
    {
      "bufferView": 2,
      "componentType": 5126,
      "count": 65534,
      "max": [
        0.6685550212860107,
        1.0023549795150757,
        0.5623059868812561
      ],
      "min": [
        -0.6896939873695374,
        -0.999081015586853,
        -0.5019260048866272
      ],
      "type": "VEC3"
    },
    {
      "bufferView": 2,
      "byteOffset": 786408,
      "componentType": 5126,
      "count": 65534,
      "max": [
        0.9999988079071045,
        0.9999793767929077,
        0.9999915957450867
      ],
      "min": [
        -0.9999127984046936,
        -0.9999769330024719,
        -0.9999273419380188
      ],
      "type": "VEC3"
    },
    {
      "bufferView": 1,
      "componentType": 5126,
      "count": 65534,
      "max": [
        0.9987369775772095,
        0.9952690005302429
      ],
      "min": [
        0.0012489999644458294,
        0.0012489999644458294
      ],
      "type": "VEC2"
    },
    {
      "bufferView": 0,
      "componentType": 5125,
      "count": 313968,
      "type": "SCALAR"
    },
    {
      "bufferView": 2,
      "byteOffset": 1572816,
      "componentType": 5126,
      "count": 65532,
      "max": [
        0.699038028717041,
        0.3404980003833771,
        0.3648580014705658
      ],
      "min": [
        -0.6847500205039978,
        -1.001047968864441,
        -0.5591490268707275
      ],
      "type": "VEC3"
    },
    {
      "bufferView": 2,
      "byteOffset": 2359200,
      "componentType": 5126,
      "count": 65532,
      "max": [
        0.999930739402771,
        0.9999977350234985,
        0.9999915957450867
      ],
      "min": [
        -0.9998725056648254,
        -1.0,
        -0.9999655485153198
      ],
      "type": "VEC3"
    },
    {
      "bufferView": 1,
      "byteOffset": 524272,
      "componentType": 5126,
      "count": 65532,
      "max": [
        0.9987419843673706,
        0.9952660202980042
      ],
      "min": [
        0.0012489999644458294,
        0.0012489999644458294
      ],
      "type": "VEC2"
    },
    {
      "bufferView": 0,
      "byteOffset": 1255872,
      "componentType": 5125,
      "count": 310272,
      "type": "SCALAR"
    },
    {
      "bufferView": 2,
      "byteOffset": 3145584,
      "componentType": 5126,
      "count": 27994,
      "max": [
        0.6973270177841187,
        0.9286810159683228,
        0.3648580014705658
      ],
      "min": [
        -0.6256139874458313,
        -0.9998739957809448,
        -0.5333099961280823
      ],
      "type": "VEC3"
    },
    {
      "bufferView": 2,
      "byteOffset": 3481512,
      "componentType": 5126,
      "count": 27994,
      "max": [
        0.9999032616615295,
        0.9996697902679443,
        0.9999285936355591
      ],
      "min": [
        -0.9997457265853882,
        -1.0,
        -0.9999582767486572
      ],
      "type": "VEC3"
    },
    {
      "bufferView": 1,
      "byteOffset": 1048528,
      "componentType": 5126,
      "count": 27994,
      "max": [
        0.9987509846687317,
        0.9952759742736816
      ],
      "min": [
        0.0012489999644458294,
        0.0012489999644458294
      ],
      "type": "VEC2"
    },
    {
      "bufferView": 0,
      "byteOffset": 2496960,
      "componentType": 5125,
      "count": 110652,
      "type": "SCALAR"
    }
  ],
  "asset": {
    "extras": {
      "author": "Trident.AI (https://sketchfab.com/Trident.AI)",
      "license": "SKETCHFAB Standard (https://sketchfab.com/licenses)",
      "source": "https://sketchfab.com/3d-models/zeus-master-of-olympus-e15f7c7eb3cc4f8ab58f6ea74df03982",
      "title": "Zeus Master of Olympus"
    },
    "generator": "Sketchfab-16.59.0",
    "version": "2.0"
  },
  "bufferViews": [
    {
      "buffer": 0,
      "byteLength": 2939568,
      "name": "floatBufferViews",
      "target": 34963
    },
    {
      "buffer": 0,
      "byteLength": 1272480,
      "byteOffset": 2939568,
      "byteStride": 8,
      "name": "floatBufferViews",
      "target": 34962
    },
    {
      "buffer": 0,
      "byteLength": 3817440,
      "byteOffset": 4212048,
      "byteStride": 12,
      "name": "floatBufferViews",
      "target": 34962
    }
  ],
  "buffers": [
    {
      "byteLength": 8029488,
      "uri": "scene.bin"
    }
  ],
  "images": [
    {
      "uri": "textures/Material.001_baseColor.png"
    }
  ],
  "materials": [
    {
      "doubleSided": true,
      "name": "Material.001",
      "pbrMetallicRoughness": {
        "baseColorTexture": {
          "index": 0
        },
        "metallicFactor": 0.0,
        "roughnessFactor": 0.8211145618000169
      }
    }
  ],
  "meshes": [
    {
      "name": "Mesh1_Mesh1.048_Material.001_0",
      "primitives": [
        {
          "attributes": {
            "NORMAL": 1,
            "POSITION": 0,
            "TEXCOORD_0": 2
          },
          "indices": 3,
          "material": 0,
          "mode": 4
        }
      ]
    },
    {
      "name": "Mesh1_Mesh1.048_Material.001_0",
      "primitives": [
        {
          "attributes": {
            "NORMAL": 5,
            "POSITION": 4,
            "TEXCOORD_0": 6
          },
          "indices": 7,
          "material": 0,
          "mode": 4
        }
      ]
    },
    {
      "name": "Mesh1_Mesh1.048_Material.001_0",
      "primitives": [
        {
          "attributes": {
            "NORMAL": 9,
            "POSITION": 8,
            "TEXCOORD_0": 10
          },
          "indices": 11,
          "material": 0,
          "mode": 4
        }
      ]
    }
  ],
  "nodes": [
    {
      "children": [
        1
      ],
      "matrix": [
        1.0,
        0.0,
        0.0,
        0.0,
        0.0,
        2.220446049250313e-16,
        -1.0,
        0.0,
        0.0,
        1.0,
        2.220446049250313e-16,
        0.0,
        0.0,
        0.0,
        0.0,
        1.0
      ],
      "name": "Sketchfab_model"
    },
    {
      "children": [
        2
      ],
      "matrix": [
        0.009999999776482582,
        0.0,
        0.0,
        0.0,
        0.0,
        0.0,
        0.009999999776482582,
        0.0,
        0.0,
        -0.009999999776482582,
        0.0,
        0.0,
        0.0,
        0.0,
        0.0,
        1.0
      ],
      "name": "332e0d4d8e69486c9c786cf1967ddaff.fbx"
    },
    {
      "children": [
        3
      ],
      "name": "RootNode"
    },
    {
      "children": [
        4,
        5,
        6
      ],
      "matrix": [
        100.0,
        0.0,
        0.0,
        0.0,
        0.0,
        99.99999999999972,
        -7.5497901264043296e-06,
        0.0,
        0.0,
        7.5497901264043296e-06,
        99.99999999999972,
        0.0,
        0.0,
        0.0,
        0.0,
        1.0
      ],
      "name": "Mesh1_Mesh1.048"
    },
    {
      "mesh": 0,
      "name": "Mesh1_Mesh1.048_Material.001_0"
    },
    {
      "mesh": 1,
      "name": "Mesh1_Mesh1.048_Material.001_0"
    },
    {
      "mesh": 2,
      "name": "Mesh1_Mesh1.048_Material.001_0"
    }
  ],
  "samplers": [
    {
      "magFilter": 9729,
      "minFilter": 9987,
      "wrapS": 10497,
      "wrapT": 10497
    }
  ],
  "scene": 0,
  "scenes": [
    {
      "name": "Sketchfab_Scene",
      "nodes": [
        0
      ]
    }
  ],
  "textures": [
    {
      "sampler": 0,
      "source": 0
    }
  ]
}
